<?xml version="1.0" encoding="utf-8"?>
<!-- Generator: Adobe Illustrator 25.2.0, SVG Export Plug-In . SVG Version: 6.00 Build 0)  -->
<svg version="1.1" id="Layer_1" xmlns="http://www.w3.org/2000/svg" xmlns:xlink="http://www.w3.org/1999/xlink" x="0px" y="0px"
	 viewBox="0 0 486 129" style="enable-background:new 0 0 486 129;" xml:space="preserve">
<style type="text/css">
	.st0{fill:#2C2255;}
	.st1{fill:#F7941E;}
	.st2{fill:url(#SVGID_1_);}
	.st3{fill:url(#SVGID_2_);}
	.st4{fill:url(#SVGID_3_);}
	.st5{fill:#FFFFFF;}
	.st6{font-family:'OpenSans';}
	.st7{font-size:16px;}
</style>
<path class="st0" d="M38.1,76.9H21.4c2.2,7.6,6.3,14.4,12.4,20.4c9.6,9.6,21.1,14.4,34.7,14.4c2.7,0,5.3-0.2,7.9-0.6
	c10.2-1.5,19.1-6.1,26.7-13.8c6.1-6,10.2-12.8,12.4-20.4h-6.8h-9.9H38.1z"/>
<g>
	<path class="st0" d="M28.9,54.2h-8.7c-0.3,1.9-0.5,3.9-0.6,5.9H30h5.2h75.3h6.9c-0.1-2-0.3-4-0.6-5.9"/>
	<path class="st0" d="M19.5,65.6c0.1,2,0.3,4,0.6,5.9h9.1h6.9h73.6h6.8c0.3-1.9,0.5-3.9,0.6-5.9"/>
</g>
<path class="st0" d="M115.4,48.7c-2.2-7.6-6.4-14.5-12.4-20.5C95.3,20.6,86.5,16,76.3,14.5c-2.6-0.4-5.2-0.6-7.9-0.6
	c-13.5,0-25,4.8-34.7,14.3c-6,6.1-10.1,12.9-12.4,20.5"/>
<g>
	<path class="st1" d="M16.6,62.8c0-25.8,19.4-47.3,44.6-51c-0.6,0-1.3,0-1.9,0C31,11.7,8.1,34.6,8.1,62.8s23,51.1,51.3,51.1
		c0.6,0,1.3,0,1.9,0C36,110.1,16.6,88.7,16.6,62.8z"/>
</g>
<rect x="287.7" y="7.7" class="st1" width="10.2" height="12.9"/>
<path class="st0" d="M202.5,60.8v5h-46.9c0.4,7,2.6,12.4,6.3,16c3.8,3.7,9.1,5.5,15.8,5.5c3.9,0,7.7-0.5,11.4-1.4
	c3.7-1,7.3-2.4,10.9-4.3v9.6c-3.7,1.6-7.4,2.7-11.3,3.5c-3.8,0.8-7.7,1.2-11.7,1.2c-9.9,0-17.7-2.9-23.5-8.6
	c-5.8-5.8-8.7-13.6-8.7-23.4c0-10.2,2.7-18.2,8.2-24.2s12.9-9,22.2-9c8.4,0,15,2.7,19.8,8.1C200.1,44.3,202.5,51.6,202.5,60.8
	 M192.3,57.8c-0.1-5.6-1.6-10-4.7-13.4c-3-3.3-7.1-5-12.1-5c-5.7,0-10.2,1.6-13.7,4.8c-3.4,3.2-5.4,7.7-5.9,13.6L192.3,57.8z"/>
<path class="st0" d="M255.4,34.7v9.5c-2.9-1.6-5.8-2.8-8.7-3.6s-5.8-1.2-8.8-1.2c-6.6,0-11.7,2.1-15.4,6.3S217,55.8,217,63.3
	c0,7.6,1.8,13.5,5.5,17.7s8.8,6.3,15.4,6.3c3,0,5.9-0.4,8.8-1.2c2.9-0.8,5.8-2,8.7-3.6V92c-2.8,1.3-5.8,2.3-8.8,3s-6.3,1-9.7,1
	c-9.3,0-16.8-2.9-22.3-8.8s-8.3-13.8-8.3-23.8c0-10.1,2.8-18.1,8.3-23.9c5.6-5.8,13.2-8.7,22.9-8.7c3.1,0,6.2,0.3,9.2,1
	C249.7,32.4,252.6,33.4,255.4,34.7"/>
<rect x="264.6" y="8.2" class="st0" width="10.2" height="86.2"/>
<path class="st0" d="M287.7,32.3h10.2v62.1h-10.2V32.3z"/>
<path class="st0" d="M320.5,85.1V118h-10.3V32.3h10.3v9.4c2.1-3.7,4.9-6.4,8.1-8.2c3.3-1.8,7.2-2.7,11.7-2.7c7.5,0,13.7,3,18.4,9
	c4.7,6,7.1,13.9,7.1,23.6c0,9.8-2.4,17.6-7.1,23.6s-10.8,9-18.4,9c-4.5,0-8.5-0.9-11.7-2.7S322.7,88.8,320.5,85.1 M355.2,63.4
	c0-7.5-1.5-13.4-4.6-17.6s-7.3-6.4-12.7-6.4c-5.4,0-9.6,2.1-12.7,6.4s-4.6,10.1-4.6,17.6s1.5,13.4,4.6,17.7s7.3,6.4,12.7,6.4
	c5.4,0,9.6-2.1,12.7-6.4S355.2,70.9,355.2,63.4"/>
<path class="st0" d="M413.8,34.1v9.6c-2.9-1.5-5.9-2.6-9-3.3s-6.3-1.1-9.6-1.1c-5.1,0-8.9,0.8-11.4,2.3c-2.5,1.6-3.8,3.9-3.8,7
	c0,2.4,0.9,4.2,2.7,5.6c1.8,1.3,5.4,2.6,10.9,3.9l3.5,0.8c7.2,1.6,12.4,3.7,15.4,6.6c3,2.8,4.6,6.8,4.6,11.8
	c0,5.8-2.3,10.3-6.8,13.7c-4.6,3.4-10.8,5-18.8,5c-3.3,0-6.8-0.3-10.4-1c-3.6-0.6-7.4-1.6-11.4-2.9V81.6c3.8,2,7.5,3.4,11.1,4.4
	c3.7,1,7.3,1.5,10.9,1.5c4.8,0,8.5-0.8,11.1-2.5c2.6-1.6,3.9-4,3.9-7c0-2.8-0.9-4.9-2.8-6.4s-6-2.9-12.3-4.3l-3.5-0.8
	c-6.3-1.3-10.9-3.4-13.7-6.1c-2.8-2.8-4.2-6.5-4.2-11.3c0-5.8,2.1-10.3,6.2-13.5s10-4.8,17.6-4.8c3.8,0,7.3,0.3,10.6,0.8
	C407.9,32.2,411,33,413.8,34.1"/>
<path class="st0" d="M477.9,60.8v5H431c0.4,7,2.6,12.4,6.3,16c3.8,3.7,9.1,5.5,15.8,5.5c3.9,0,7.7-0.5,11.4-1.4
	c3.7-1,7.3-2.4,10.9-4.3v9.6c-3.7,1.6-7.4,2.7-11.3,3.5c-3.8,0.8-7.7,1.2-11.7,1.2c-9.9,0-17.7-2.9-23.5-8.6
	c-5.8-5.8-8.7-13.6-8.7-23.4c0-10.2,2.7-18.2,8.2-24.2s12.9-9,22.2-9c8.3,0,15,2.7,19.8,8.1C475.5,44.3,477.9,51.6,477.9,60.8
	 M467.7,57.8c-0.1-5.6-1.6-10-4.7-13.4c-3-3.3-7.1-5-12.1-5c-5.7,0-10.2,1.6-13.7,4.8c-3.4,3.2-5.4,7.7-5.9,13.6L467.7,57.8z"/>
<g>
	
		<linearGradient id="SVGID_1_" gradientUnits="userSpaceOnUse" x1="68.4" y1="12.5762" x2="68.4" y2="86.2111" gradientTransform="matrix(1 0 0 -1 0 131)">
		<stop  offset="0.3033" style="stop-color:#473788"/>
		<stop  offset="0.872" style="stop-color:#2C2255"/>
	</linearGradient>
	<path class="st2" d="M101.7,60.1c-0.2-2-0.5-4-1-5.9H36.1c-0.5,1.9-0.8,3.9-1,5.9H101.7z"/>
	
		<linearGradient id="SVGID_2_" gradientUnits="userSpaceOnUse" x1="68.4" y1="12.5752" x2="68.4" y2="86.2101" gradientTransform="matrix(1 0 0 -1 0 131)">
		<stop  offset="0.3033" style="stop-color:#473788"/>
		<stop  offset="0.872" style="stop-color:#2C2255"/>
	</linearGradient>
	<path class="st3" d="M101.7,65.6H35.1c0.2,2,0.5,4,1,5.9h64.5C101.1,69.6,101.5,67.6,101.7,65.6z"/>
	
		<linearGradient id="SVGID_3_" gradientUnits="userSpaceOnUse" x1="68.4" y1="12.5771" x2="68.4" y2="86.2084" gradientTransform="matrix(1 0 0 -1 0 131)">
		<stop  offset="0.3033" style="stop-color:#473788"/>
		<stop  offset="0.8631" style="stop-color:#2C2255"/>
	</linearGradient>
	<path class="st4" d="M68.4,96.2c13.4,0,24.9-7.9,30.3-19.3H38.1C43.4,88.3,55,96.2,68.4,96.2z"/>
</g>
<g>
	<path class="st5" d="M30.2,65.6h4.9h66.7h8.8h6.7c0-0.9,0.1-1.7,0.1-2.6c0-1,0-1.9-0.1-2.8h-6.6h-8.8H35.1h-5.2H19.5
		c-0.1,0.9-0.1,1.9-0.1,2.8c0,0.9,0,1.8,0.1,2.6H30.2z"/>
	<path class="st5" d="M37.9,48.7H21.4c-0.5,1.8-0.9,3.6-1.2,5.5h8.5H36h64.7h9.2h6.5c-0.3-1.9-0.8-3.7-1.3-5.5"/>
	<path class="st5" d="M110,71.5h-9.2H36.2h-6.9h-9.1c0.3,1.9,0.7,3.7,1.2,5.5h16.8h60.7h10h6.5c0.5-1.8,1-3.6,1.3-5.5H110z"/>
</g>
<text transform="matrix(1 0 0 1 464.3169 20.72)" class="st0 st6 st7">®</text>
</svg>
